# xmcd
#
# Track frame offsets: 
#        150
#        15354
#        26670
#        39011
#        51757
#        66602
#        78985
#        95916
#        108827
#        126088
#        141678
#        151359
#        166290
#        178304
#        196370
#        210720
#        228757
#        245525
#        254533
#        271649
#
# Disc length: 3779 seconds
#
# Revision: 0
# Processed by: cddbd v1.5.2PL0 Copyright (c) Steve Scherf et al.
# Submitted via: ExactAudioCopy v0.99pb5
#
DISCID=170ec114
DTITLE=Skip Grabow - Not Just The Blues
DYEAR=1998
DGENRE=Blues
TTITLE0=Moles Moan/Motorcycle Song
TTITLE1=Railroad Blues
TTITLE2=Willie Jean
TTITLE3=Bill Morgan and His Gal
TTITLE4=He Was a Friend of Mine
TTITLE5=Big Road Blues
TTITLE6=Backwater Blues
TTITLE7=Nature's Way
TTITLE8=Stewball
TTITLE9=All Along the Watchtower/Run Shaker Life
TTITLE10=If You're a Viper
TTITLE11=Green Green Rocky Road
TTITLE12=Don't Make Promises
TTITLE13=Stagolee
TTITLE14=I shall Be Released
TTITLE15=Runnin' Hidin'
TTITLE16=Good Time Charlie
TTITLE17=Mish Mash
TTITLE18=In A Station
TTITLE19=Candy Man
EXTD=
EXTT0=
EXTT1=
EXTT2=
EXTT3=
EXTT4=
EXTT5=
EXTT6=
EXTT7=
EXTT8=
EXTT9=
EXTT10=
EXTT11=
EXTT12=
EXTT13=
EXTT14=
EXTT15=
EXTT16=
EXTT17=
EXTT18=
EXTT19=
PLAYORDER=
